# xmcd CD database file
#
# Track frame offsets:
#	180
#	25318
#	43071
#	63740
#	77816
#	82186
#	119056
#	135090
#	147013
#	168028
#	184368
#	193031
#	217294
#	249621
#	264375
#	272388
#	307965
#
# Disc length: 4260 seconds
#
# Revision: 0
# Processed by: cddbd v1.4PL0 Copyright (c) Steve Scherf et al.
# Submitted via: CDex 1.51
#
DISCID=fa10a211
DTITLE=ARFI - Le Marvelous Band
DYEAR=1900
DGENRE=Jazz
TTITLE0=Pinocchio
TTITLE1=Aiga Belhida
TTITLE2=Levo Levo
TTITLE3=Les radis
TTITLE4=Mardi Trois -Prélude
TTITLE5=Sept jeunes et fiers maris
TTITLE6=Los Lagartos
TTITLE7=Jack'ying
TTITLE8=Mardi Trois
TTITLE9=Limericks
TTITLE10=Chanson de la route du nord
TTITLE11=Me uno me douno
TTITLE12=En attendant
TTITLE13=Souvenir imaginaire de l'afrique mythique
TTITLE14=Petipao en Bosnie Herzegovine
TTITLE15=Chant libre no 2
TTITLE16=Dansons le Ploukepingre
EXTD=
EXTT0=
EXTT1=
EXTT2=
EXTT3=
EXTT4=
EXTT5=
EXTT6=
EXTT7=
EXTT8=
EXTT9=
EXTT10=
EXTT11=
EXTT12=
EXTT13=
EXTT14=
EXTT15=
EXTT16=
PLAYORDER=
